# xmcd
#
# Track frame offsets: 
#        183
#        15983
#        34858
#        51758
#        68770
#        85745
#        100520
#        110395
#        126595
#        143508
#        157833
#        171670
#        188920
#        207608
#        222583
#        238495
#        254795
#        269695
#
# Disc length: 3753 seconds
#
# Revision: 1
# Processed by: cddbd v1.5.1PL0 Copyright (c) Steve Scherf et al.
# Submitted via: ExactAudioCopy v0.95a5
#
DISCID=120ea712
DTITLE=Various Artist - The American Dream - Country and Western Greats
DYEAR=1990
DGENRE=Country
TTITLE0=Rich Grissom - It Must Be Love
TTITLE1=David Lynn Jones - Lonely Town
TTITLE2=Kathy Mattea - Willow in the Wind
TTITLE3=Daniele Alexander - She's There
TTITLE4=Kentucky Headhunters - Walk Softly On This Heart Of Mine
TTITLE5=Johnny Cash - Cat's in the Cradle
TTITLE6=The Statler Brothers - Jealous Eyes
TTITLE7=Kris Kristofferson and The Borderlords - The Eagle And The Bear
TTITLE8=Kathy Mattea - Where Have You Been
TTITLE9=Kentucky Headhunters - Oh Lonsesome Me
TTITLE10=Larry Boone - Everybody Wants To Be Hank Williams
TTITLE11=Johnny Cash - Farmer's Almanac
TTITLE12=David Lynn Jones - When Times Were God
TTITLE13=The Statler Brothers - Holding On
TTITLE14=Daniele Alexander - Fairytale Fool
TTITLE15=Kris Kristofferson and The Borderlords - Mal Sacate
TTITLE16=Rich Grissom - I Can't See Tomorrow For Today
TTITLE17=Shane Barmby - You're The One
EXTD=(c)1990 Phonogram GmbH\n(p)1990 Polygram Inc. - Mercury\nupc 0422
EXTD=84699624\nCD 846 996-2\n\n
EXTT0=
EXTT1=
EXTT2=
EXTT3=
EXTT4=
EXTT5=
EXTT6=
EXTT7=
EXTT8=
EXTT9=
EXTT10=
EXTT11=
EXTT12=
EXTT13=
EXTT14=
EXTT15=
EXTT16=
EXTT17=
PLAYORDER=
